<svg width="308" height="40" viewBox="0 0 308 40" fill="none" xmlns="http://www.w3.org/2000/svg">
<g clip-path="url(#clip0_7_77)">
<path d="M113.363 19.8193C112.96 18.8178 112.414 17.9996 111.736 17.3592C111.056 16.7206 110.261 16.2457 109.354 15.9451C108.442 15.6374 107.493 15.4844 106.509 15.4844C104.917 15.4844 103.516 15.8295 102.305 16.5107C101.094 17.1938 100.182 18.4514 99.7035 19.8068V19.1914L99.661 16.0073H95.7563V36.6591H99.661V26.029C99.661 24.8355 99.8026 23.8091 100.095 22.9357C100.382 22.0623 100.787 21.3437 101.306 20.7781C101.827 20.2124 102.432 19.7997 103.13 19.5365C103.822 19.2785 104.575 19.1433 105.382 19.1433C105.988 19.1433 106.576 19.2412 107.139 19.4315C107.702 19.6165 108.203 19.9242 108.639 20.3423C109.067 20.7656 109.416 21.3206 109.68 22.0019C109.937 22.6849 110.066 23.5014 110.066 24.4619V36.6591H113.971V23.3733C113.971 22.009 113.769 20.8225 113.365 19.8193H113.363Z" fill="#222123"/>
<path d="M127.501 33.3933C127.011 33.4787 126.534 33.5232 126.069 33.5232C125.316 33.5232 124.746 33.388 124.355 33.1105C123.969 32.833 123.675 32.4719 123.492 32.0219C123.303 31.5665 123.193 31.0631 123.168 30.4975C123.138 29.9265 123.119 29.3537 123.119 28.7756V19.4067H128.72V16.0074H123.119V11.2581H119.219V16.0074H114.709V19.4067H119.219V30.1666C119.219 31.0098 119.256 31.8458 119.324 32.6747C119.396 33.5054 119.63 34.2489 120.021 34.9195C120.413 35.5901 121.018 36.1309 121.84 36.5542C122.667 36.9723 123.829 37.1822 125.336 37.1822C125.739 37.1822 126.31 37.1324 127.05 37.0345C127.785 36.9296 128.383 36.7464 128.849 36.4867L128.907 32.4008C128.658 32.9558 127.992 33.308 127.501 33.3933Z" fill="#222123"/>
<path d="M150.964 36.9827H148.535C147.812 36.9827 147.17 36.8529 146.605 36.5914C146.04 36.3299 145.599 35.9101 145.282 35.3285C144.963 34.7486 144.806 33.9641 144.806 32.9751V24.2181L144.675 23.6525C144.675 22.3166 144.349 21.1906 143.699 20.2763C143.049 19.362 141.841 18.9031 140.078 18.9031C138.574 18.9031 137.324 19.2891 136.325 20.0575C135.328 20.8278 134.554 21.7936 134.005 22.9552L131.402 20.2977C131.865 19.5719 132.509 18.8373 133.333 18.0973C134.156 17.3573 135.176 16.7401 136.391 16.2456C137.605 15.7529 138.978 15.5056 140.511 15.5056C143.056 15.5056 145.015 16.2171 146.389 17.6402C147.761 19.0632 148.448 21.0537 148.448 23.6098V32.2369C148.448 32.7012 148.549 33.0285 148.751 33.217C148.953 33.4056 149.257 33.4999 149.661 33.4999H150.963V36.9863L150.964 36.9827ZM137.474 37.4168C135.739 37.4168 134.388 36.9525 133.419 36.0222C132.451 35.0937 131.965 33.9303 131.965 32.5358C131.965 31.1412 132.444 29.9796 133.396 29.0511C134.351 28.1226 135.58 27.3079 137.083 26.6106L145.367 22.8645L145.888 25.4348L138.645 28.8768C137.662 29.3411 136.938 29.8071 136.476 30.2714C136.014 30.7356 135.782 31.3031 135.782 31.9701C135.782 32.6959 136.028 33.2633 136.518 33.6689C137.009 34.0762 137.747 34.279 138.73 34.279C139.626 34.279 140.444 34.142 141.181 33.8645C141.917 33.5888 142.553 33.2046 143.09 32.7101C143.624 32.2174 144.044 31.6499 144.347 31.0113C144.65 30.3728 144.802 29.6612 144.802 28.8768L144.931 30.9242C144.758 31.8829 144.382 32.8631 143.803 33.8645C143.224 34.866 142.415 35.7091 141.374 36.3922C140.333 37.0735 139.031 37.415 137.471 37.415L137.474 37.4168Z" fill="#222123"/>
<path d="M156.04 36.9828H151.703L159.25 26.3527L152.224 15.9397H156.56L160.203 21.5162L162.025 24.348L163.847 21.5607L167.621 15.9397H172.002L164.541 26.2229L171.655 36.9846H167.318L163.762 31.4952L161.724 28.4019L159.686 31.4952L156.043 36.9846L156.04 36.9828Z" fill="#222123"/>
<path d="M83.2013 37.246C81.234 37.246 79.5074 36.796 78.0182 35.8959C76.5289 34.9958 75.3567 33.724 74.5049 32.084C73.6514 30.4439 73.2246 28.505 73.2246 26.2673C73.2246 24.0296 73.6514 22.0996 74.5049 20.472C75.3567 18.8462 76.5289 17.5815 78.0182 16.6814C79.5074 15.7813 81.234 15.3313 83.2013 15.3313C85.1687 15.3313 86.8439 15.7813 88.3189 16.6814C89.794 17.5815 90.9504 18.8462 91.788 20.472C92.6273 22.0996 93.0452 24.0296 93.0452 26.2673C93.0452 28.505 92.6255 30.4439 91.788 32.084C90.9486 33.7258 89.7923 34.9958 88.3189 35.8959C86.8439 36.796 85.1368 37.246 83.2013 37.246ZM83.1588 34.0655C84.3736 34.0655 85.4361 33.7827 86.3463 33.2153C87.2565 32.6496 87.9736 31.7922 88.4925 30.6449C89.0131 29.4976 89.2734 28.0372 89.2734 26.2655C89.2734 24.4939 89.0131 23.0352 88.4925 21.8861C87.9719 20.7388 87.2565 19.8814 86.3463 19.3158C85.4361 18.7501 84.3736 18.4655 83.1588 18.4655C81.944 18.4655 80.9613 18.7484 80.0351 19.3158C79.109 19.8814 78.3936 20.7388 77.8889 21.8861C77.3825 23.0335 77.1292 24.4939 77.1292 26.2655C77.1292 28.0372 77.3825 29.4976 77.8889 30.6449C78.3954 31.7922 79.1108 32.6496 80.0351 33.2153C80.9595 33.7809 82.0007 34.0655 83.1588 34.0655Z" fill="#222123"/>
<path d="M22.739 39.0001L22.4752 28.0747C22.4752 27.9573 22.4698 27.6852 22.1316 27.5625C21.7934 27.4397 21.6163 27.6461 21.5596 27.7154L15.4238 34.9498L11.606 31.6821L17.7418 24.4478C19.2523 22.6672 21.6446 22.0304 23.8351 22.8238C26.0256 23.6171 27.4617 25.6414 27.4918 27.9822L27.7557 38.8809L22.7408 39.0036L22.739 39.0001Z" fill="#7C3AED"/>
<path d="M0.122186 27.879L0 22.8415L10.8763 22.5764C10.9932 22.5764 11.2641 22.5711 11.3863 22.2313C11.5085 21.8916 11.303 21.7137 11.234 21.6568L4.03212 15.4933L7.28509 11.6582L14.487 17.8217C16.2595 19.339 16.8952 21.7422 16.1037 23.9425C15.3139 26.1429 13.2987 27.5855 10.9684 27.6157L0.118644 27.8808L0.122186 27.879Z" fill="#7C3AED"/>
<path d="M16.8902 16.5143C16.258 16.5143 15.6152 16.404 14.9901 16.1781C12.7996 15.3848 11.3635 13.3605 11.3334 11.0196L11.0713 0.122737L16.0862 0L16.3501 10.9253C16.3501 11.0427 16.3554 11.3149 16.6936 11.4376C17.0318 11.5604 17.2071 11.354 17.2656 11.2847L23.4014 4.05031L27.2193 7.31795L21.0834 14.5523C20.005 15.8241 18.475 16.5143 16.8902 16.5143Z" fill="#7C3AED"/>
<path d="M31.5381 27.3417L24.3362 21.1782C22.5637 19.6609 21.9279 17.2595 22.7195 15.0574C23.5093 12.857 25.5245 11.4144 27.8548 11.3842L38.7046 11.1191L38.8267 16.1567L27.9505 16.4217C27.8336 16.4217 27.5626 16.4271 27.4405 16.7668C27.3183 17.1066 27.5237 17.2844 27.5928 17.3414L34.7946 23.5049L31.5416 27.3399L31.5381 27.3417Z" fill="#7C3AED"/>
<path d="M68.3902 12.2807C67.5225 11.1476 66.4228 10.276 65.0947 9.66588C63.7649 9.05575 62.3907 8.75158 60.9741 8.75158C59.2387 8.75158 57.6698 9.07888 56.2673 9.73169C54.8648 10.3845 53.6642 11.2792 52.6672 12.4106C51.6703 13.5436 50.8964 14.8724 50.3475 16.3968C49.7985 17.9213 49.5241 19.556 49.5241 21.2974C49.5241 22.925 49.7844 24.4636 50.305 25.9151C50.8256 27.3684 51.5764 28.6456 52.561 29.7484C53.5438 30.8531 54.7444 31.7247 56.161 32.3633C57.5777 33.0018 59.182 33.322 60.9758 33.322C62.7697 33.322 64.2872 32.9592 65.6171 32.2334C66.947 31.5077 68.075 30.4902 68.9994 29.1846L72.5126 31.8421C72.2807 32.1623 71.8769 32.6194 71.2979 33.2153C70.7188 33.8112 69.9538 34.4071 68.9994 35.0012C68.0449 35.5971 66.8956 36.1201 65.5516 36.5701C64.2076 37.0201 62.6528 37.246 60.8891 37.246C58.4595 37.246 56.269 36.7818 54.3176 35.8515C52.3662 34.9229 50.7034 33.7027 49.3293 32.1925C47.9551 30.6823 46.9068 28.9764 46.1843 27.0731C45.4618 25.1716 45.1006 23.247 45.1006 21.2992C45.1006 18.9174 45.4902 16.717 46.2711 14.6981C47.052 12.6792 48.1428 10.9359 49.5453 9.47021C50.9478 8.00449 52.6318 6.8625 54.5974 6.0496C56.563 5.23669 58.7322 4.82935 61.1033 4.82935C63.1274 4.82935 65.116 5.22068 67.0674 6.00513C69.0188 6.78957 70.6161 7.99559 71.8592 9.62141L68.3884 12.2789L68.3902 12.2807Z" fill="#222123"/>
<path d="M138.831 8.10059H135.102V12.3697H138.831V8.10059Z" fill="#222123"/>
<path d="M145.25 8.10059H141.521V12.3697H145.25V8.10059Z" fill="#222123"/>
</g>
<defs>
<clipPath id="clip0_7_77">
<rect width="308" height="39.0036" fill="white"/>
</clipPath>
</defs>
</svg>
